REM DIRINDEX 1\4,1\2\5,1\2\6,1\2\7,1\3\8,1\3\9,1\3\10,1\3\11
REM DIRNAME folder01,folder02,folder03,folder04,folder05,folder06,folder07,folder08,folder09,folder10,folder11
TITLE ""
FILE "t_k_420-430.mp3" MP3
  TRACK 01 AUDIO
    TITLE "5:cjc108_1263"
    INDEX 01 00:00:00
  TRACK 02 AUDIO
    TITLE "0:"
    INDEX 01 00:00:68
  TRACK 03 AUDIO
    TITLE "6:cjc108_1264"
    INDEX 01 00:01:03
  TRACK 04 AUDIO
    TITLE "0:"
    INDEX 01 00:03:41
  TRACK 05 AUDIO
    TITLE "7:cjc108_1265"
    INDEX 01 00:03:59
  TRACK 06 AUDIO
    TITLE "0:"
    INDEX 01 00:08:60
  TRACK 07 AUDIO
    TITLE "5:cjc108_1266"
    INDEX 01 00:09:55
  TRACK 08 AUDIO
    TITLE "0:"
    INDEX 01 00:10:55
  TRACK 09 AUDIO
    TITLE "6:cjc108_1267"
    INDEX 01 00:10:68
  TRACK 10 AUDIO
    TITLE "0:"
    INDEX 01 00:12:67
  TRACK 11 AUDIO
    TITLE "7:cjc108_1268"
    INDEX 01 00:13:04
  TRACK 12 AUDIO
    TITLE "0:"
    INDEX 01 00:18:37
  TRACK 13 AUDIO
    TITLE "5:cjc108_1269"
    INDEX 01 00:19:22
  TRACK 14 AUDIO
    TITLE "0:"
    INDEX 01 00:20:30
  TRACK 15 AUDIO
    TITLE "6:cjc108_1270"
    INDEX 01 00:20:47
  TRACK 16 AUDIO
    TITLE "0:"
    INDEX 01 00:22:46
  TRACK 17 AUDIO
    TITLE "7:cjc108_1271"
    INDEX 01 00:22:68
  TRACK 18 AUDIO
    TITLE "0:"
    INDEX 01 00:26:67
  TRACK 19 AUDIO
    TITLE "5:cjc108_1272"
    INDEX 01 00:27:67
  TRACK 20 AUDIO
    TITLE "0:"
    INDEX 01 00:28:74
  TRACK 21 AUDIO
    TITLE "6:cjc108_1273"
    INDEX 01 00:29:07
  TRACK 22 AUDIO
    TITLE "0:"
    INDEX 01 00:31:67
  TRACK 23 AUDIO
    TITLE "7:cjc108_1274"
    INDEX 01 00:32:09
  TRACK 24 AUDIO
    TITLE "0:"
    INDEX 01 00:37:24
  TRACK 25 AUDIO
    TITLE "5:cjc108_1275"
    INDEX 01 00:38:10
  TRACK 26 AUDIO
    TITLE "0:"
    INDEX 01 00:39:27
  TRACK 27 AUDIO
    TITLE "6:cjc108_1276"
    INDEX 01 00:39:31
  TRACK 28 AUDIO
    TITLE "0:"
    INDEX 01 00:40:52
  TRACK 29 AUDIO
    TITLE "7:cjc108_1277"
    INDEX 01 00:40:70
  TRACK 30 AUDIO
    TITLE "0:"
    INDEX 01 00:44:63
  TRACK 31 AUDIO
    TITLE "5:cjc108_1278"
    INDEX 01 00:45:47
  TRACK 32 AUDIO
    TITLE "0:"
    INDEX 01 00:46:47
  TRACK 33 AUDIO
    TITLE "6:cjc108_1279"
    INDEX 01 00:46:64
  TRACK 34 AUDIO
    TITLE "0:"
    INDEX 01 00:49:49
  TRACK 35 AUDIO
    TITLE "7:cjc108_1280"
    INDEX 01 00:49:67
  TRACK 36 AUDIO
    TITLE "0:"
    INDEX 01 00:54:42
  TRACK 37 AUDIO
    TITLE "5:cjc108_1281"
    INDEX 01 00:55:22
  TRACK 38 AUDIO
    TITLE "0:"
    INDEX 01 00:56:16
  TRACK 39 AUDIO
    TITLE "6:cjc108_1282"
    INDEX 01 00:56:35
  TRACK 40 AUDIO
    TITLE "0:"
    INDEX 01 00:58:52
  TRACK 41 AUDIO
    TITLE "7:cjc108_1283"
    INDEX 01 00:58:71
  TRACK 42 AUDIO
    TITLE "0:"
    INDEX 01 01:05:40
  TRACK 43 AUDIO
    TITLE "5:cjc108_1284"
    INDEX 01 01:06:30
  TRACK 44 AUDIO
    TITLE "0:"
    INDEX 01 01:07:37
  TRACK 45 AUDIO
    TITLE "6:cjc108_1285"
    INDEX 01 01:07:39
  TRACK 46 AUDIO
    TITLE "0:"
    INDEX 01 01:10:65
  TRACK 47 AUDIO
    TITLE "7:cjc108_1286"
    INDEX 01 01:11:05
  TRACK 48 AUDIO
    TITLE "0:"
    INDEX 01 01:15:01
  TRACK 49 AUDIO
    TITLE "5:cjc108_1287"
    INDEX 01 01:15:66
  TRACK 50 AUDIO
    TITLE "0:"
    INDEX 01 01:17:18
  TRACK 51 AUDIO
    TITLE "6:cjc108_1288"
    INDEX 01 01:17:22
  TRACK 52 AUDIO
    TITLE "0:"
    INDEX 01 01:19:62
  TRACK 53 AUDIO
    TITLE "7:cjc108_1289"
    INDEX 01 01:20:08
  TRACK 54 AUDIO
    TITLE "0:"
    INDEX 01 01:24:18
  TRACK 55 AUDIO
    TITLE "5:cjc108_1290"
    INDEX 01 01:25:00
  TRACK 56 AUDIO
    TITLE "0:"
    INDEX 01 01:25:74
  TRACK 57 AUDIO
    TITLE "6:cjc108_1291"
    INDEX 01 01:26:21
  TRACK 58 AUDIO
    TITLE "0:"
    INDEX 01 01:28:39
  TRACK 59 AUDIO
    TITLE "7:cjc108_1292"
    INDEX 01 01:28:55
  TRACK 60 AUDIO
    TITLE "0:"
    INDEX 01 01:34:30
  TRACK 61 AUDIO
    TITLE "5:cjc108_1293"
    INDEX 01 01:35:18
  TRACK 62 AUDIO
    TITLE "0:"
    INDEX 01 01:36:25
  TRACK 63 AUDIO
    TITLE "6:cjc108_1294"
    INDEX 01 01:36:35
  TRACK 64 AUDIO
    TITLE "0:"
    INDEX 01 01:39:15
  TRACK 65 AUDIO
    TITLE "7:cjc108_1295"
    INDEX 01 01:39:29
  TRACK 66 AUDIO
    TITLE "0:"
    INDEX 01 01:45:08
